<svg data-v-423bf9ae="" xmlns="http://www.w3.org/2000/svg" viewBox="0 0 236.9762549503183 60" class="font"><!----><!----><!----><g data-v-423bf9ae="" id="c3828f31-964f-44e0-93c0-9d120b5d9bfa" fill="white" transform="matrix(4.319654617459175,0,0,4.319654617459175,-0.43196275386345917,-13.002160595775258)"><path d="M7.13 13.51L6.19 10.86L2.44 10.86L1.50 13.51L0.10 13.51L3.61 3.71L5.01 3.71L8.53 13.51L7.13 13.51ZM2.86 9.66L5.77 9.66L4.31 5.57L2.86 9.66ZM11.47 13.65Q10.56 13.65 10.12 13.17Q9.67 12.70 9.67 12.01L9.67 12.01L9.67 7.63L8.50 7.63L8.61 6.65L9.67 6.65L9.67 4.96L10.93 4.83L10.93 6.65L12.74 6.65L12.74 7.63L10.93 7.63L10.93 11.24Q10.93 11.96 11.02 12.22Q11.10 12.49 11.38 12.56Q11.65 12.64 12.38 12.64L12.38 12.64L12.70 12.64L12.60 13.65L11.47 13.65ZM16.18 13.65Q15.27 13.65 14.83 13.17Q14.39 12.70 14.39 12.01L14.39 12.01L14.39 7.63L13.22 7.63L13.33 6.65L14.39 6.65L14.39 4.96L15.65 4.83L15.65 6.65L17.46 6.65L17.46 7.63L15.65 7.63L15.65 11.24Q15.65 11.96 15.74 12.22Q15.82 12.49 16.09 12.56Q16.37 12.64 17.09 12.64L17.09 12.64L17.42 12.64L17.32 13.65L16.18 13.65ZM21.77 13.65Q20.59 13.65 19.76 13.17Q18.93 12.68 18.49 11.86Q18.06 11.03 18.06 10.02L18.06 10.02Q18.06 9.06 18.46 8.25Q18.86 7.45 19.62 6.98Q20.38 6.51 21.42 6.51L21.42 6.51Q22.74 6.51 23.55 7.28Q24.37 8.05 24.37 9.41L24.37 9.41Q24.37 9.76 24.32 10.08L24.32 10.08L19.35 10.08Q19.47 11.41 20.16 11.97Q20.85 12.53 21.92 12.53L21.92 12.53Q23.00 12.53 23.90 12.12L23.90 12.12L24.07 13.12Q22.88 13.65 21.77 13.65L21.77 13.65ZM19.46 9.21L23.07 9.21Q23.07 8.47 22.65 8.05Q22.23 7.63 21.39 7.63L21.39 7.63Q20.58 7.63 20.12 8.03Q19.66 8.43 19.46 9.21L19.46 9.21ZM29.04 6.51Q31.84 6.51 31.84 9.73L31.84 9.73L31.84 13.51L30.58 13.51L30.58 9.73Q30.58 8.62 30.16 8.13Q29.75 7.63 28.78 7.63L28.78 7.63Q28.17 7.63 27.66 7.85Q27.16 8.08 26.91 8.53L26.91 8.53L26.91 13.51L25.65 13.51L25.65 6.65L26.63 6.65L26.77 7.38Q27.31 6.89 27.87 6.70Q28.42 6.51 29.04 6.51L29.04 6.51ZM38.29 3.01L39.55 3.01L39.55 13.51L38.43 13.51L38.29 12.67Q37.94 13.15 37.38 13.40Q36.82 13.65 36.19 13.65L36.19 13.65Q35.32 13.65 34.61 13.17Q33.89 12.70 33.48 11.89Q33.07 11.07 33.07 10.09L33.07 10.09Q33.07 9.14 33.45 8.32Q33.84 7.49 34.55 7Q35.27 6.51 36.19 6.51L36.19 6.51Q36.81 6.51 37.35 6.73Q37.90 6.96 38.29 7.42L38.29 7.42L38.29 3.01ZM36.41 12.53Q36.92 12.53 37.38 12.27Q37.84 12.01 38.14 11.47Q38.43 10.92 38.43 10.09L38.43 10.09Q38.43 9.32 38.14 8.76Q37.84 8.20 37.37 7.92Q36.90 7.63 36.41 7.63L36.41 7.63Q35.46 7.63 34.91 8.32Q34.36 9.02 34.36 10.09L34.36 10.09Q34.36 11.13 34.92 11.83Q35.48 12.53 36.41 12.53L36.41 12.53ZM41.24 5.11L41.24 3.71L42.50 3.71L42.50 5.11L41.24 5.11ZM41.24 13.51L41.24 6.65L42.50 6.65L42.50 13.51L41.24 13.51ZM44.69 13.51L44.69 7.63L43.50 7.63L43.67 6.65L44.69 6.65L44.69 5.03Q44.69 4.09 45.19 3.55Q45.68 3.01 46.62 3.01L46.62 3.01Q47.24 3.01 47.71 3.19L47.71 3.19L47.52 4.26Q47.18 4.13 46.82 4.13L46.82 4.13Q45.95 4.13 45.95 5.11L45.95 5.11L45.95 6.65L47.80 6.65L47.80 7.63L45.95 7.63L45.95 13.51L44.69 13.51ZM49.36 16.90L50.95 13.20L48.09 6.65L49.49 6.65L51.63 11.75L53.56 6.65L54.96 6.65L50.76 16.90L49.36 16.90Z"></path></g><!----><!----></svg>